<svg xmlns="http://www.w3.org/2000/svg" viewBox="0 0 64 64">
  <defs>
    <linearGradient id="sun" x1="0" y1="0" x2="1" y2="1">
      <stop offset="0" stop-color="#f1a448"/>
      <stop offset="1" stop-color="#ed2434"/>
    </linearGradient>
  </defs>
  <rect width="64" height="64" rx="16" fill="#071015"/>
  <circle cx="42" cy="21" r="10" fill="url(#sun)"/>
  <path d="M7 38c8-8 15-10 22-8 5 1 8 5 13 5 5 0 9-3 15-6v8c-6 4-11 6-16 6-6 0-9-4-14-5-6-1-12 1-20 8z" fill="#64cbd6"/>
  <path d="M7 44c9-5 16-7 23-5 6 1 9 5 14 5 4 0 8-2 13-5v7c-5 3-10 5-15 5-6 0-9-3-14-4-6-2-13 0-21 4z" fill="#236875"/>
  <path d="M8 19h18" stroke="#faf8f2" stroke-width="5" stroke-linecap="round"/>
  <path d="M18 11l8 8-8 8" fill="none" stroke="#ed2434" stroke-width="5" stroke-linecap="round" stroke-linejoin="round"/>
</svg>